# xmcd CD database file generated by OrangeCD 6.0
#
# Track frame offsets:
#	150
#	16064
#	32362
#	48961
#	61482
#	75462
#	90405
#	103325
#	118845
#	130427
#
# Disc length: 1910 seconds
#
# Revision: 2
# Processed by: cddbd v1.5.1PL2 Copyright (c) Steve Scherf et al.
# Submitted via: OrangeCD 6.0
#
DISCID=7707740a
DTITLE=Red Steagall - The Wind, The Wire and the Rail
DYEAR=2005
DGENRE=Country
TTITLE0=The Wire and the Rail
TTITLE1=Texas Silver Zephyr
TTITLE2=McCorkle and the Wire
TTITLE3=The Wind in the Wheel
TTITLE4=Muley Was a Railroad Man
TTITLE5=Six Thousand Miles of Wire
TTITLE6=From the Old Mill
TTITLE7=No One But God Feels His Pain
TTITLE8=The Code of the West Hasn't Changed
TTITLE9=How Green Was the Grazin' Back Then
EXTD=
EXTT0=
EXTT1=
EXTT2=
EXTT3=
EXTT4=
EXTT5=
EXTT6=
EXTT7=
EXTT8=
EXTT9=
PLAYORDER=
